<?xml version="1.0" encoding="utf-8"?>
<!-- Generator: Adobe Illustrator 16.0.4, SVG Export Plug-In . SVG Version: 6.00 Build 0)  -->
<!DOCTYPE svg PUBLIC "-//W3C//DTD SVG 1.1//EN" "http://www.w3.org/Graphics/SVG/1.1/DTD/svg11.dtd">
<svg version="1.1" id="Layer_1" xmlns="http://www.w3.org/2000/svg" xmlns:xlink="http://www.w3.org/1999/xlink" x="0px" y="0px"
	 width="587px" height="270px" viewBox="0 0 587 270" enable-background="new 0 0 587 270" xml:space="preserve">
<g>
	<path fill="#FFFFFF" d="M68.708,209.594c0-6.996,4.759-12.897,11.327-12.897c4.188,0,7.52,2.522,9.423,5.615v-15.134h3.236v30.554
		c0,0.904,0.333,1.333,1.142,1.333v2.855c-0.523,0.095-0.952,0.143-1.285,0.143c-1.57,0-2.713-1.047-2.713-2.332v-2.617
		c-1.999,3.236-5.616,5.282-9.233,5.282C73.705,222.396,68.708,216.257,68.708,209.594z M89.458,213.401v-7.663
		c-1.285-3.427-5.188-6.187-8.567-6.187c-5.33,0-8.852,4.949-8.852,10.042c0,5.378,4.045,9.946,9.233,9.946
		C84.556,219.54,88.935,216.78,89.458,213.401z"/>
	<path fill="#FFFFFF" d="M112.348,199.979c-4.331,0.144-7.805,2.522-9.138,6.521v15.42h-3.236v-24.796h3.046v5.949
		c1.713-3.474,4.712-6.092,7.9-6.092c0.571,0,1.095,0,1.428,0.048V199.979z"/>
	<path fill="#FFFFFF" d="M116.679,191.937v-4.759h3.236v4.759H116.679z M116.679,221.92v-24.796h3.236v24.796H116.679z"/>
	<path fill="#FFFFFF" d="M147.708,221.92h-3.236v-13.85c0-5.854-1.666-8.424-5.283-8.424c-3.855,0-7.853,2.999-9.09,7.092v15.182
		h-3.236v-24.796h2.951v5.616c1.999-3.617,6.14-6.044,10.518-6.044c5.568,0,7.377,4.188,7.377,10.708V221.92z"/>
	<path fill="#FFFFFF" d="M172.123,221.92l-9.138-12.707l-5.331,4.949v7.758h-3.236v-34.742h3.236v23.605l13.944-13.611h3.665
		l-10.137,10.138l10.518,14.61H172.123z"/>
	<path fill="#FFFFFF" d="M189.587,218.684l1.475-2.189c2.76,2.285,5.616,3.427,8.9,3.427c3.95,0,6.567-1.713,6.567-4.664
		c0-2.76-2.475-3.521-7.472-4.712c-5.759-1.428-8.329-2.427-8.329-6.329c0-4.997,4.188-7.52,9.28-7.52
		c3.808,0,7.044,1.38,8.947,3.379l-1.57,1.903c-1.856-1.903-4.664-2.855-7.472-2.855c-3.379,0-6.092,1.381-6.092,4.616
		c0,2.618,1.761,3.189,6.187,4.236c6.377,1.522,9.661,2.76,9.661,6.996c0,4.521-3.807,7.424-9.661,7.424
		C196.155,222.396,192.252,221.111,189.587,218.684z"/>
	<path fill="#FFFFFF" d="M218.094,216.78v15.276h-3.236v-34.933h2.903v4.808c1.999-3.094,5.473-5.235,9.233-5.235
		c6.853,0,11.803,6.234,11.803,12.85c0,6.996-4.569,12.85-11.232,12.85C223.377,222.396,220.045,219.969,218.094,216.78z
		 M235.465,209.546c0-5.33-4.045-9.994-9.233-9.994c-3.236,0-7.615,2.808-8.138,6.14v7.614c1.476,3.521,4.854,6.234,8.566,6.234
		C231.991,219.54,235.465,214.591,235.465,209.546z"/>
	<path fill="#FFFFFF" d="M242.508,209.594c0-6.948,5.235-12.897,12.327-12.897s12.326,5.949,12.326,12.897
		c0,6.9-5.188,12.802-12.326,12.802C247.6,222.396,242.508,216.494,242.508,209.594z M254.787,219.54
		c4.95,0,9.042-4.474,9.042-9.994s-4.093-9.994-8.995-9.994c-4.95,0-8.995,4.521-8.995,10.09
		C245.839,215.162,249.837,219.54,254.787,219.54z"/>
	<path fill="#FFFFFF" d="M293.287,221.92h-3.236v-13.85c0-5.854-1.666-8.424-5.283-8.424c-3.855,0-7.853,2.999-9.09,7.092v15.182
		h-3.236v-24.796h2.951v5.616c1.999-3.617,6.14-6.044,10.518-6.044c5.568,0,7.376,4.188,7.376,10.708V221.92z"/>
	<path fill="#FFFFFF" d="M311.8,220.73c-0.762,0.333-2.951,1.475-5.616,1.475c-2.808,0-5.235-1.57-5.235-4.759v-17.752h-3.427v-2.57
		h3.427v-8.376h3.236v8.376h5.711v2.57h-5.711v16.848c0.143,1.809,1.428,2.665,2.998,2.665c1.809,0,3.38-0.856,3.76-1.095
		L311.8,220.73z"/>
	<path fill="#FFFFFF" d="M313.654,214.829c0-4.617,4.284-7.615,10.471-7.615c2.475,0,5.235,0.476,7.281,1.285v-2.237
		c0-4.378-2.712-7.139-6.948-7.139c-2.617,0-5.282,1.047-7.995,2.951l-1.143-2.142c3.188-2.142,6.188-3.236,9.471-3.236
		c5.997,0,9.852,3.712,9.852,9.852v11.184c0,0.904,0.334,1.333,1.143,1.333v2.855c-0.523,0.048-0.952,0.095-1.285,0.095
		c-1.285,0-2.522-0.761-2.617-2.284l-0.096-1.951c-2.142,2.903-6.044,4.616-9.613,4.616
		C317.081,222.396,313.654,218.922,313.654,214.829z M330.598,216.447c0.429-0.571,0.809-1.285,0.809-1.856v-4.046
		c-2.142-0.809-4.568-1.284-6.806-1.284c-4.616,0-7.805,1.998-7.805,5.282c0,2.618,2.047,5.378,6.187,5.378
		C325.838,219.921,328.979,218.589,330.598,216.447z"/>
	<path fill="#FFFFFF" d="M362.53,221.92h-3.236v-13.85c0-5.854-1.665-8.424-5.282-8.424c-3.855,0-7.853,2.999-9.09,7.092v15.182
		h-3.236v-24.796h2.95v5.616c1.999-3.617,6.14-6.044,10.518-6.044c5.568,0,7.377,4.188,7.377,10.708V221.92z"/>
	<path fill="#FFFFFF" d="M367.622,209.451c0-6.949,5.234-12.755,12.421-12.755c7.234,0,12.231,5.901,12.279,12.707
		c0,0.476-0.048,1.095-0.096,1.285h-21.178c0.38,5.33,4.378,9.232,9.138,9.232c3.283,0,6.472-1.809,7.614-4.474l2.808,0.762
		c-1.522,3.617-5.759,6.187-10.518,6.187C372.856,222.396,367.622,216.494,367.622,209.451z M389.229,208.214
		c-0.429-5.283-4.331-8.995-9.186-8.995s-8.757,3.76-9.09,8.995H389.229z"/>
	<path fill="#FFFFFF" d="M395.558,209.594c0-6.948,5.234-12.897,12.326-12.897c7.091,0,12.326,5.949,12.326,12.897
		c0,6.9-5.188,12.802-12.326,12.802C400.649,222.396,395.558,216.494,395.558,209.594z M407.836,219.54
		c4.949,0,9.043-4.474,9.043-9.994s-4.094-9.994-8.995-9.994c-4.95,0-8.995,4.521-8.995,10.09
		C398.889,215.162,402.887,219.54,407.836,219.54z"/>
	<path fill="#FFFFFF" d="M425.254,211.688v-14.563h3.236v13.992c0,5.664,1.903,8.424,5.759,8.424c3.854,0,7.472-2.665,8.947-6.806
		v-15.61h3.236v20.607c0,0.904,0.381,1.333,1.189,1.333v2.855c-0.618,0.095-0.999,0.143-1.332,0.143
		c-1.476,0-2.666-0.999-2.666-2.332v-3.427c-2.188,3.855-6.139,6.092-10.47,6.092C427.967,222.396,425.254,218.731,425.254,211.688z
		"/>
	<path fill="#FFFFFF" d="M451.666,218.684l1.476-2.189c2.761,2.285,5.616,3.427,8.899,3.427c3.95,0,6.568-1.713,6.568-4.664
		c0-2.76-2.475-3.521-7.473-4.712c-5.758-1.428-8.328-2.427-8.328-6.329c0-4.997,4.188-7.52,9.28-7.52
		c3.808,0,7.044,1.38,8.947,3.379l-1.57,1.903c-1.856-1.903-4.664-2.855-7.472-2.855c-3.379,0-6.092,1.381-6.092,4.616
		c0,2.618,1.761,3.189,6.187,4.236c6.378,1.522,9.661,2.76,9.661,6.996c0,4.521-3.808,7.424-9.661,7.424
		C458.234,222.396,454.331,221.111,451.666,218.684z"/>
	<path fill="#FFFFFF" d="M477.08,187.178h3.236v29.126c0,1.856,1.095,2.951,2.903,2.951c0.714,0,1.761-0.19,2.569-0.523l0.571,2.617
		c-1.189,0.477-3.188,0.856-4.474,0.856c-2.951,0-4.807-1.808-4.807-4.807V187.178z"/>
	<path fill="#FFFFFF" d="M490.168,229.582c0.285,0.048,0.618,0.096,0.951,0.096c0.619,0,1.476-0.144,1.809-0.286
		c0.667-0.285,1.237-1.189,3.76-7.472l-10.803-24.796h3.379l9.185,21.798l8.472-21.798h3.094l-12.897,31.982
		c-0.952,2.332-2.428,3.475-5.33,3.475c-0.619,0-1.143-0.048-1.618-0.144V229.582z"/>
	<path fill="#FFFFFF" d="M511.964,221.92v-4.664h2.761v4.664H511.964z"/>
</g>
<g>
	<g>
		<g>
			<path fill="#FFFFFF" d="M234.148,147.091h-36.154V72.258h40.049c10.544,0,17.075,9.696,17.075,19.075
				c0,7.272-3.796,14.336-10.749,17.391c8.539,2.531,13.912,9.275,13.912,19.08C258.282,140.345,247.318,147.091,234.148,147.091z
				 M212.537,84.692v18.868h19.394c4.85,0,8.855-3.583,8.855-9.484c0-5.692-3.586-9.384-8.22-9.384H212.537z M234.886,115.051
				h-22.349v19.708h21.611c5.266,0,9.484-4.324,9.484-9.699C243.632,119.579,239.836,115.051,234.886,115.051z"/>
			<path fill="#FFFFFF" d="M264.499,130.647c0-10.542,9.696-17.812,23.503-17.812c4.951,0,9.91,0.844,13.491,2.422v-3.16
				c0-7.269-4.215-11.381-12.329-11.381c-5.902,0-11.387,2.103-17.285,6.217l-4.321-8.961c7.165-4.742,14.756-7.059,22.975-7.059
				c15.807,0,25.083,8.113,25.083,22.765v17.181c0,2.952,1.057,4.109,3.796,4.215v12.016c-2.635,0.526-5.06,0.738-6.75,0.738
				c-5.27-0.106-8.009-2.635-8.746-6.534l-0.314-3.059c-4.949,6.43-12.226,9.908-20.234,9.908
				C272.619,148.144,264.499,140.66,264.499,130.647z M299.172,133.178c1.479-1.159,2.321-2.636,2.321-4.006v-6.321
				c-3.375-1.269-7.586-2.109-11.172-2.109c-7.271,0-12.438,3.684-12.438,8.744c0,4.745,4.112,8.328,9.487,8.328
				C292.114,137.813,296.75,136.022,299.172,133.178z"/>
			<path fill="#FFFFFF" d="M361.99,104.09c-8.54,0.104-15.808,3.371-18.759,9.59v33.412h-14.123V91.862h12.964v11.806
				c3.793-7.485,10.323-12.65,17.074-12.65c1.476,0,2.216,0.106,2.844,0.209V104.09z"/>
			<path fill="#FFFFFF" d="M371.369,147.091V72.258h14.547v62.08h38.154v12.753H371.369z"/>
			<path fill="#FFFFFF" d="M431.974,84.169V70.151h14.123v14.018H431.974z M431.974,147.091V91.862h14.123v55.229H431.974z"/>
			<path fill="#FFFFFF" d="M462.224,147.091v-37.942h-7.166V98.29h7.166v-6.849c0-13.702,7.271-22.343,18.442-22.343
				c4.531,0,9.17,1.159,13.6,3.267l-2.85,10.647c-2.106-1.16-5.267-2.008-7.694-2.008c-4.846,0-7.376,3.484-7.376,9.912v7.375h13.49
				v10.859h-13.49v37.942H462.224z"/>
			<path fill="#FFFFFF" d="M531.998,144.243c-3.8,1.688-9.699,3.792-15.709,3.792c-7.796,0-14.332-3.792-14.332-13.594v-31.724
				h-7.166V91.862h7.166V73.944h14.123v17.918h11.697v10.855H516.08v26.983c0,3.898,2.423,5.375,5.374,5.375
				c2.954,0,6.01-1.263,7.697-2.002L531.998,144.243z"/>
		</g>
		<path fill="#FFFFFF" d="M171.817,108.618c0,34.058-27.604,61.661-61.66,61.661c-34.055,0-61.659-27.604-61.659-61.661
			c0-34.052,27.604-61.657,61.659-61.657C144.214,46.961,171.817,74.566,171.817,108.618z"/>
		<path fill="#E5653D" d="M143.342,56.638l-3.631,5.164c1.109,1.653,1.175,3.882-0.018,5.628c-1.215,1.798-3.391,2.547-5.381,2.046
			l-3.444,4.898c4.542,2.224,8.797,5.219,12.567,8.99c0.023,0.025,0.047,0.048,0.071,0.071l-4.753,4.746
			c-0.019-0.024-0.043-0.043-0.064-0.071C122.95,72.375,97.353,72.35,81.586,88.042l-4.748-4.748
			c13.731-13.672,33.856-17.12,50.815-10.345l3.805-5.41c-1.206-1.666-1.304-3.968-0.083-5.763c1.251-1.845,3.512-2.591,5.544-2.006
			l3.452-4.912c-8.931-5.03-19.238-7.898-30.215-7.898c-34.055,0-61.659,27.605-61.659,61.657c0,34.058,27.604,61.661,61.659,61.661
			c34.057,0,61.66-27.604,61.66-61.661C171.817,86.779,160.467,67.593,143.342,56.638z M109.904,150.362
			c-9.649,0-17.677-2.001-17.677-4.475c0-2.254,5.773-3.134,14.773-3.271v-28.759l-1.562-1.762c0.021-0.025,0.142-0.052,0.165-0.074
			c2.555-2.559,8.03-2.577,10.615-0.068l-0.217,1.55v29.131c6,0.193,12.661,1.089,12.661,3.253
			C128.661,148.36,119.558,150.362,109.904,150.362z M96,102.456c0.023-0.024,0.048-0.046,0.068-0.071
			c7.87-7.869,20.657-7.89,28.555-0.068l-4.746,4.749c-5.282-5.204-13.811-5.182-19.061,0.068c-0.021,0.023-0.043,0.049-0.068,0.073
			L96,102.456z M129.32,97.621c-0.025-0.02-0.045-0.048-0.068-0.071c-10.537-10.531-27.662-10.555-38.225-0.064l-4.746-4.751
			c13.182-13.107,34.565-13.083,47.717,0.068c0.023,0.025,0.046,0.048,0.07,0.071L129.32,97.621z"/>
	</g>
</g>
</svg>
